<?xml version="1.0" encoding="utf-8"?>
<!DOCTYPE svg PUBLIC "-//W3C//DTD SVG 1.1//EN" "http://www.w3.org/Graphics/SVG/1.1/DTD/svg11.dtd">
<svg version="1.1" id="Layer_1" xmlns="http://www.w3.org/2000/svg" xmlns:xlink="http://www.w3.org/1999/xlink" x="0px" y="0px"
	 width="100px" height="100px" viewBox="0 0 100 100" style="enable-background:new 0 0 100 100;" xml:space="preserve">
<path style="fill:#D5D6E0;" d="M100,94c0,3.313-2.687,6-6,6H6c-3.313,0-6-2.687-6-6V6c0-3.313,2.687-6,6-6h88c3.313,0,6,2.687,6,6
	V94z"/>
<path style="fill:#053384;" d="M73.469,18.668c-3.342-3.805-9.375-5.438-17.096-5.438H33.969c-1.582,0-2.924,1.149-3.17,2.708
	l-9.33,59.17c-0.186,1.167,0.717,2.224,1.9,2.224h13.833l3.474-22.035l-0.107,0.689c0.248-1.558,1.58-2.708,3.156-2.708h6.574
	c12.914,0,23.024-5.245,25.979-20.417c0.088-0.45,0.164-0.886,0.23-1.313c-0.374-0.198-0.374-0.198,0,0
	C77.387,25.94,76.5,22.124,73.469,18.668"/>
<path style="fill:#053384;" d="M73.469,18.668c-3.342-3.805-9.375-5.438-17.096-5.438H33.969c-1.582,0-2.924,1.149-3.17,2.708
	l-9.33,59.17c-0.186,1.167,0.717,2.224,1.9,2.224h13.833l3.474-22.035l-0.107,0.689c0.248-1.558,1.58-2.708,3.156-2.708h6.574
	c12.914,0,23.024-5.245,25.979-20.417c0.088-0.45,0.164-0.886,0.23-1.313c-0.374-0.198-0.374-0.198,0,0
	C77.387,25.94,76.5,22.124,73.469,18.668"/>
<path style="fill:#053384;" d="M44.412,31.624c0.145-0.937,0.747-1.706,1.558-2.094c0.37-0.178,0.778-0.275,1.212-0.275h17.564
	c2.08,0,4.021,0.137,5.793,0.421c0.509,0.082,1.002,0.175,1.481,0.285c0.479,0.104,0.942,0.226,1.394,0.358
	c0.226,0.064,0.445,0.133,0.664,0.205c0.871,0.29,1.682,0.629,2.43,1.026c0.879-5.609-0.008-9.426-3.039-12.882
	c-3.342-3.805-9.375-5.438-17.096-5.438H33.964c-1.577,0-2.917,1.149-3.165,2.708l-9.33,59.168
	c-0.186,1.169,0.719,2.225,1.898,2.225h13.835l3.474-22.036L44.412,31.624z"/>
<path style="fill:#199CDA;" d="M76.508,31.55L76.508,31.55c-0.07,0.428-0.143,0.865-0.23,1.313
	c-2.954,15.169-13.064,20.417-25.979,20.417h-6.574c-1.578,0-2.91,1.149-3.156,2.708l-3.366,21.344l-0.955,6.055
	c-0.161,1.021,0.627,1.946,1.661,1.946h11.66c1.381,0,2.556-1.005,2.77-2.367l0.115-0.596l2.197-13.927l0.141-0.769
	c0.217-1.364,1.393-2.368,2.77-2.368h1.746c11.297,0,20.142-4.589,22.727-17.862c1.08-5.546,0.52-10.178-2.334-13.431
	C78.834,33.026,77.759,32.214,76.508,31.55"/>
<path style="fill:#042467;" d="M73.414,30.317c-0.451-0.13-0.914-0.251-1.394-0.356c-0.479-0.105-0.974-0.201-1.481-0.283
	c-1.775-0.286-3.711-0.423-5.794-0.423H47.182c-0.434,0-0.844,0.097-1.212,0.277c-0.811,0.388-1.41,1.153-1.558,2.092l-3.736,23.673
	l-0.104,0.689c0.245-1.558,1.577-2.708,3.153-2.708h6.576c12.912,0,23.025-5.245,25.977-20.417c0.088-0.45,0.162-0.885,0.23-1.313
	c-0.748-0.395-1.559-0.736-2.43-1.024C73.861,30.452,73.643,30.381,73.414,30.317"/>
</svg>
